<svg version="1.1" id="Layer_1" xmlns="http://www.w3.org/2000/svg" xmlns:xlink="http://www.w3.org/1999/xlink" x="0px" y="0px"
	 width="100%" viewBox="0 0 512 487" enable-background="new 0 0 512 487" xml:space="preserve">
<path fill="#FFFFFF" opacity="1.000000" stroke="none" 
	d="
M375.173370,482.047974 
	C372.917114,483.841827 370.660889,485.635681 368.702332,487.714783 
	C367.933319,488.000000 366.866669,488.000000 365.135315,487.663879 
	C363.159119,487.184631 361.847687,486.916779 360.536163,486.916351 
	C298.559387,486.895752 236.582626,486.890442 174.605896,486.944397 
	C173.070297,486.945709 171.535278,487.632751 170.000000,488.000000 
	C169.250000,488.000000 168.500000,488.000000 167.375000,488.000000 
	C166.536026,487.342987 166.174423,486.571869 165.590698,486.048340 
	C162.824188,483.567047 159.997055,481.153290 157.088699,478.363739 
	C156.985855,478.012024 157.052124,477.948090 157.375931,477.955139 
	C158.130600,477.990540 158.561447,478.018890 159.153412,478.348114 
	C161.803711,483.404724 166.071487,480.934082 169.532974,480.939331 
	C233.126114,481.035645 296.719482,480.986664 360.312683,481.054596 
	C365.266602,481.059906 370.219818,481.701935 375.173370,482.047974 
z"/>
<path fill="#FFFFFF" opacity="1.000000" stroke="none" 
	d="
M513.000000,326.666687 
	C512.259338,327.572662 511.518616,328.145355 510.132538,328.654480 
	C507.335724,328.060638 505.184814,327.069214 503.032806,327.066803 
	C430.983521,326.986267 358.934113,327.000092 286.884735,326.999451 
	C285.553619,326.999420 284.040741,327.386078 282.940338,326.879974 
	C281.738770,326.327362 280.919067,324.944458 279.945618,323.948364 
	C279.958282,323.973267 279.905945,323.954254 280.121277,323.877258 
	C280.613342,323.652039 280.829315,323.441559 281.270935,323.050079 
	C282.335327,322.275970 283.113373,321.620483 284.109039,320.886169 
	C284.606415,320.657196 284.825836,320.444763 285.276123,320.045410 
	C286.383636,319.332794 287.200012,318.744781 288.182648,318.469543 
	C290.080292,322.419037 293.397491,322.001373 296.558258,322.001282 
	C363.155640,321.999603 429.753052,322.038971 496.350220,321.914185 
	C500.892609,321.905670 505.432709,320.668671 509.984070,320.360107 
	C510.285248,321.811462 510.576172,322.905731 511.099426,324.239899 
	C511.887817,324.653198 512.443909,324.826599 513.000000,325.000000 
	C513.000000,325.444458 513.000000,325.888885 513.000000,326.666687 
z"/>
<path fill="#FFFFFF" opacity="1.000000" stroke="none" 
	d="
M170.468658,488.000000 
	C171.535278,487.632751 173.070297,486.945709 174.605896,486.944397 
	C236.582626,486.890442 298.559387,486.895752 360.536163,486.916351 
	C361.847687,486.916779 363.159119,487.184631 364.735291,487.663879 
	C300.312439,488.000000 235.624878,488.000000 170.468658,488.000000 
z"/>
<path fill="#FFFFFF" opacity="1.000000" stroke="none" 
	d="
M510.043549,15.635698 
	C510.331573,31.348021 510.563324,46.707962 510.307861,62.506645 
	C499.683472,62.966358 489.546265,62.987324 479.316284,62.546558 
	C479.121490,54.060841 479.019531,46.036846 478.731689,37.624924 
	C477.720154,37.161278 476.894409,37.019432 476.068695,37.019291 
	C423.087738,37.010288 370.106812,37.004669 317.125885,37.046276 
	C315.163239,37.047817 313.201019,37.520260 310.842010,37.857460 
	C300.261444,40.240978 292.458069,46.182365 285.592377,54.032509 
	C284.928894,54.450211 284.553253,54.834061 284.236938,55.204285 
	C284.296265,55.190651 284.322815,55.309402 284.126221,55.284676 
	C283.831207,55.343014 283.732849,55.426079 283.634460,55.509144 
	C283.801727,55.691566 283.968964,55.873993 284.032532,56.279579 
	C283.739594,56.787598 283.482697,56.983932 282.881348,57.240158 
	C282.422638,57.972172 282.240723,58.555767 282.038879,59.455482 
	C281.640350,60.499626 281.261719,61.227646 280.625122,61.715179 
	C279.195709,55.693638 274.941803,54.931168 270.039001,54.977718 
	C261.580994,55.058029 253.115829,55.186405 244.665298,54.922447 
	C240.333618,54.787140 236.558426,55.260532 233.580292,58.900166 
	C228.050110,52.339737 223.227722,45.463188 215.216187,42.108807 
	C211.479874,40.544422 207.644363,39.216869 203.496704,37.594631 
	C201.820694,37.277138 200.501846,37.033695 199.182892,37.033157 
	C146.311584,37.011711 93.440285,37.003239 40.569057,37.065800 
	C39.342072,37.067249 38.116062,37.900761 36.957703,38.426605 
	C37.025806,38.507046 36.901398,38.677208 36.626839,39.026123 
	C36.193501,43.255451 36.034721,47.135864 35.500622,50.946541 
	C32.456345,50.251820 29.817514,49.346104 27.112640,49.055809 
	C19.733561,48.263874 11.883621,50.997215 5.031588,45.544495 
	C5.000089,36.032097 5.014832,26.987160 5.029574,17.942223 
	C5.790490,10.484676 11.149240,7.381862 18.108971,4.996221 
	C78.998688,4.992818 139.058273,5.002336 199.117859,5.011855 
	C210.588943,4.587206 221.528519,7.451010 231.281311,12.905786 
	C240.907349,18.289663 249.529068,25.469225 259.650696,32.608150 
	C260.684998,31.413933 262.491882,29.053415 264.575409,26.969522 
	C273.450989,18.092415 283.603241,11.437471 296.138153,8.848412 
	C302.503876,7.533583 308.797913,5.871750 315.772766,4.598221 
	C318.079041,4.886789 319.736847,4.993474 321.394684,4.993890 
	C379.637268,5.008504 437.879883,5.013131 496.122467,5.019169 
	C503.023987,5.360846 507.079437,9.546939 510.043549,15.635698 
z"/>
<path fill="#FFFFFF" opacity="1.000000" stroke="none" 
	d="
M364.836334,451.301361 
	C370.119659,452.293427 374.302277,455.089813 377.869446,459.785217 
	C378.382568,460.941345 378.736816,461.467621 379.091095,461.993896 
	C379.091095,461.993896 379.022552,461.970001 378.997986,462.363708 
	C379.085358,467.369385 375.579346,465.976105 373.262756,465.977997 
	C303.298523,466.035004 233.334274,466.014923 163.370041,466.063843 
	C160.923080,466.065552 158.476501,466.648682 156.037735,466.571930 
	C156.013977,465.406891 155.982239,464.630737 155.950485,463.854553 
	C156.091415,457.944916 159.968643,455.034302 164.803802,452.983368 
	C166.561996,452.237610 168.447296,451.791504 171.081879,451.138397 
	C197.944153,451.009155 223.999176,450.950165 250.054184,450.891205 
	C250.054184,450.891205 250.476700,450.950867 250.756317,450.938477 
	C251.035934,450.926117 251.077377,451.053894 251.073669,451.440521 
	C252.675323,452.881958 254.246567,454.781677 255.891800,454.848083 
	C263.823364,455.168213 271.775269,454.949585 279.719116,455.019623 
	C282.561523,455.044678 284.162292,454.019775 284.255737,451.017792 
	C284.672760,451.001770 284.836395,450.955200 285.464020,450.979797 
	C312.230774,451.134430 338.533539,451.217896 364.836334,451.301361 
z"/>
<path fill="#FFFFFF" opacity="1.000000" stroke="none" 
	d="
M12.823263,337.012878 
	C12.391410,336.696350 11.959553,336.379852 11.217232,335.634033 
	C9.902056,334.499237 8.897345,333.793701 7.892637,333.088165 
	C7.892641,333.088165 7.988678,333.006409 7.886865,332.838593 
	C7.637702,332.381439 7.421473,332.159088 7.136361,332.003723 
	C7.136361,332.003723 6.994909,331.591339 6.990503,330.946716 
	C6.909835,325.757935 10.354068,327.041779 12.713440,327.040314 
	C90.503204,326.991547 168.293015,327.000000 246.082809,326.999908 
	C247.415390,326.999908 248.760986,326.878937 250.077972,327.021881 
	C253.232162,327.364227 254.280167,325.775604 254.391968,323.027893 
	C255.799072,324.152039 256.903687,325.163605 258.148071,326.356079 
	C258.513367,326.756073 258.780304,326.896362 259.053467,326.968689 
	C259.018250,326.979523 259.036377,326.908081 259.150940,327.136932 
	C259.545288,327.550110 259.825073,327.734436 260.055115,327.957367 
	C260.005371,327.995972 260.090820,327.903503 260.122681,328.227142 
	C260.793030,328.982147 261.431458,329.413544 262.090393,329.857574 
	C262.110870,329.870239 262.129517,329.914642 262.229248,330.138489 
	C262.524811,330.641052 262.785522,330.830566 263.067078,330.951782 
	C263.023010,330.972748 263.075623,330.890533 263.177612,331.128052 
	C263.553131,331.566589 263.826691,331.767578 264.331360,332.032196 
	C264.860016,332.280090 265.014923,332.547089 264.864410,333.250732 
	C262.897736,334.403076 261.104309,335.864868 259.288361,335.893372 
	C246.478577,336.094513 233.663147,335.916382 220.852020,336.069244 
	C218.119537,336.101837 214.483627,335.376801 214.008881,339.863770 
	C213.214050,339.906403 212.419205,339.949036 211.130066,339.540436 
	C208.920715,338.719696 207.206024,338.028900 205.490601,338.027039 
	C141.848572,337.958221 78.206451,337.953094 14.564358,337.939301 
	C14.564358,337.939301 14.493780,337.991699 14.294704,337.661041 
	C13.671505,337.224548 13.247382,337.118713 12.823263,337.012878 
z"/>
<path fill="#FFFFFF" opacity="1.000000" stroke="none" 
	d="
M287.046234,367.177185 
	C286.435425,369.216095 285.824615,371.255005 284.786652,373.962769 
	C284.147369,377.435455 283.770111,380.238281 283.752869,383.043335 
	C283.691498,393.030396 283.752563,403.018219 283.417358,412.934814 
	C282.046753,410.567627 280.309265,408.314362 280.168579,405.965424 
	C279.941711,402.176788 278.184631,401.003387 274.862091,401.004913 
	C269.378204,401.007416 263.873169,401.298401 258.416962,400.908813 
	C253.833557,400.581543 252.816376,402.378632 252.902985,406.622162 
	C253.047607,413.708496 252.535767,420.808258 252.219910,427.446625 
	C252.122360,411.633789 252.140442,396.276459 252.042984,380.919830 
	C252.030930,379.021332 251.403687,377.126678 251.061508,375.230255 
	C250.705124,374.413788 250.348740,373.597321 250.292679,372.188293 
	C250.035934,370.403595 249.478867,369.211426 248.921783,368.019257 
	C248.921783,368.019257 248.991684,368.004303 249.023560,367.642090 
	C248.883041,365.685150 248.710663,364.090454 248.393204,361.153778 
	C262.498779,361.153778 276.275940,361.153778 290.053070,361.153778 
	C290.053070,361.153778 290.003143,361.514191 289.595337,361.747437 
	C288.473755,363.712860 287.759979,365.445007 287.046234,367.177185 
z"/>
<path fill="#FFFFFF" opacity="1.000000" stroke="none" 
	d="
M254.089462,322.915314 
	C254.280167,325.775604 253.232162,327.364227 250.077972,327.021881 
	C248.760986,326.878937 247.415390,326.999908 246.082809,326.999908 
	C168.293015,327.000000 90.503204,326.991547 12.713440,327.040314 
	C10.354068,327.041779 6.909835,325.757935 6.964604,330.730286 
	C6.012901,329.656433 5.082691,328.154449 4.387673,326.045166 
	C4.746449,324.291931 4.870032,323.145966 5.462933,322.000000 
	C83.220314,322.000000 160.508377,322.000031 237.796448,321.999786 
	C239.128998,321.999786 240.464737,321.936371 241.793442,322.006866 
	C244.740479,322.163269 246.147491,320.802826 246.399261,317.927124 
	C248.836624,319.384155 250.925217,320.777985 253.155029,322.351959 
	C253.525833,322.748138 253.796173,322.881714 254.086761,322.945770 
	C254.066238,322.958710 254.089462,322.915314 254.089462,322.915314 
z"/>
<path fill="#FFFFFF" opacity="1.000000" stroke="none" 
	d="
M290.369141,360.982727 
	C276.275940,361.153778 262.498779,361.153778 248.393204,361.153778 
	C248.710663,364.090454 248.883041,365.685150 249.003159,367.671448 
	C245.338104,361.835663 242.174149,355.277466 236.060699,350.101257 
	C234.586548,345.990509 236.158936,344.977478 239.390549,344.984955 
	C258.458160,345.029175 277.526123,345.050446 296.593506,344.969635 
	C300.442719,344.953339 301.269501,346.556854 299.955139,349.861023 
	C296.865173,353.511261 293.775208,357.161469 290.369141,360.982727 
z"/>
<path fill="#FFFFFF" opacity="1.000000" stroke="none" 
	d="
M300.305542,349.850342 
	C301.269501,346.556854 300.442719,344.953339 296.593506,344.969635 
	C277.526123,345.050446 258.458160,345.029175 239.390549,344.984955 
	C236.158936,344.977478 234.586548,345.990509 235.932922,349.797485 
	C230.008499,346.998962 224.080551,343.785034 218.092972,340.686340 
	C217.133514,340.189819 215.907318,340.208679 214.406662,339.926514 
	C214.483627,335.376801 218.119537,336.101837 220.852020,336.069244 
	C233.663147,335.916382 246.478577,336.094513 259.288361,335.893372 
	C261.104309,335.864868 262.897736,334.403076 265.170074,333.391174 
	C266.381897,333.770050 267.125275,334.362488 268.213196,334.943848 
	C286.474823,335.471130 304.391876,336.009460 322.539825,336.554749 
	C321.937012,337.843384 321.466217,338.849792 320.995392,339.856232 
	C314.215576,343.184052 307.435791,346.511841 300.305542,349.850342 
z"/>
<path fill="#FFFFFF" opacity="1.000000" stroke="none" 
	d="
M4.163574,221.008453 
	C4.121142,216.985901 4.078711,212.963348 4.559422,208.478409 
	C15.047159,208.019409 25.011755,208.022797 34.980377,208.433716 
	C35.276138,210.835266 35.567867,212.829254 35.910645,215.270294 
	C35.946712,217.811829 35.931728,219.906326 35.453312,222.002319 
	C33.158859,222.002350 31.325802,222.056671 29.497173,221.989822 
	C21.051966,221.681168 12.607990,221.338760 4.163574,221.008453 
z"/>
<path fill="#FFFFFF" opacity="1.000000" stroke="none" 
	d="
M4.095815,221.407181 
	C12.607990,221.338760 21.051966,221.681168 29.497173,221.989822 
	C31.325802,222.056671 33.158859,222.002350 35.527313,222.009583 
	C36.064751,222.015320 36.212090,222.024628 36.176170,222.475616 
	C36.096542,225.949661 36.052830,228.972687 35.539902,231.999039 
	C25.079443,231.656113 15.088202,231.309875 5.078726,230.570755 
	C4.762059,228.461563 4.463628,226.745239 4.165199,225.028931 
	C4.119485,223.954590 4.073771,222.880249 4.095815,221.407181 
z"/>
<path fill="#FFFFFF" opacity="1.000000" stroke="none" 
	d="
M14.837608,338.318176 
	C78.206451,337.953094 141.848572,337.958221 205.490601,338.027039 
	C207.206024,338.028900 208.920715,338.719696 210.739319,339.452576 
	C146.410843,339.552063 81.978775,339.289337 17.546780,339.011139 
	C16.734367,339.007629 15.922813,338.806122 14.837608,338.318176 
z"/>
<path fill="#FFFFFF" opacity="1.000000" stroke="none" 
	d="
M4.635821,18.142265 
	C5.014832,26.987160 5.000089,36.032097 4.977167,46.009041 
	C5.010385,54.632900 5.051783,62.324753 5.043761,70.481232 
	C5.036847,81.301178 5.079353,91.656494 5.072480,102.477386 
	C5.062410,112.964745 5.101720,122.986526 5.090201,133.473663 
	C5.075525,141.293015 5.111676,148.647003 5.098113,156.465317 
	C5.079609,161.954849 5.110820,166.980057 5.101020,172.471863 
	C5.088381,182.610336 5.116752,192.282181 5.111045,202.338440 
	C4.766219,204.160858 4.455471,205.598846 4.144723,207.036835 
	C4.095477,195.391281 4.003305,183.745743 4.004437,172.100189 
	C4.009260,122.506104 4.039997,72.912018 4.071453,23.317932 
	C4.072505,21.659355 4.182732,20.000847 4.635821,18.142265 
z"/>
<path fill="#FFFFFF" opacity="1.000000" stroke="none" 
	d="
M4.094286,207.285675 
	C4.455471,205.598846 4.766219,204.160858 5.565249,202.355103 
	C16.001051,201.982544 25.948570,201.977722 35.944786,202.381454 
	C35.956306,203.884583 35.919132,204.979156 35.667603,206.252869 
	C35.294285,206.963409 35.135315,207.494797 34.976349,208.026184 
	C25.011755,208.022797 15.047159,208.019409 4.624898,208.021545 
	C4.126104,207.862869 4.084977,207.698685 4.094286,207.285675 
z"/>
<path fill="#FFFFFF" opacity="1.000000" stroke="none" 
	d="
M198.908737,4.618690 
	C139.058273,5.002336 78.998688,4.992818 18.471941,4.939696 
	C19.188099,4.596958 20.371233,4.036961 21.554766,4.036117 
	C79.945755,3.994476 138.336761,4.000105 196.727783,4.011178 
	C197.385071,4.011303 198.042343,4.150988 198.908737,4.618690 
z"/>
<path fill="#FFFFFF" opacity="1.000000" stroke="none" 
	d="
M495.915009,4.624090 
	C437.879883,5.013131 379.637268,5.008504 321.394684,4.993890 
	C319.736847,4.993474 318.079041,4.886789 316.150879,4.487230 
	C339.026306,4.096598 362.172058,4.021999 385.317841,4.006353 
	C420.290924,3.982712 455.264038,3.996740 490.237122,4.009911 
	C492.060638,4.010598 493.884064,4.152730 495.915009,4.624090 
z"/>
<path fill="#FFFFFF" opacity="1.000000" stroke="none" 
	d="
M249.832886,450.515625 
	C223.999176,450.950165 197.944153,451.009155 171.427353,450.969940 
	C171.649734,450.581604 172.333939,450.037903 173.018097,450.037994 
	C198.549255,450.040802 224.080414,450.093811 249.832886,450.515625 
z"/>
<path fill="#FFFFFF" opacity="1.000000" stroke="none" 
	d="
M251.062103,375.676575 
	C251.403687,377.126678 252.030930,379.021332 252.042984,380.919830 
	C252.140442,396.276459 252.122360,411.633789 252.145142,427.876160 
	C252.199310,430.204712 252.247864,431.648041 252.216003,433.518860 
	C252.188980,436.263733 252.242386,438.581116 252.222580,441.352417 
	C252.202850,444.556274 252.256332,447.306274 252.221909,450.288544 
	C252.134003,450.520844 252.024521,451.005371 251.788727,451.036804 
	C251.552933,451.068268 251.077377,451.053894 251.077377,451.053894 
	C251.077377,451.053894 251.035934,450.926117 250.969666,450.936768 
	C250.956497,426.005890 251.009598,401.064423 251.062103,375.676575 
z"/>
<path fill="#FFFFFF" opacity="1.000000" stroke="none" 
	d="
M4.993615,322.000000 
	C4.870032,323.145966 4.746449,324.291931 4.391102,325.691925 
	C4.124774,301.274841 4.090209,276.603699 4.304045,251.493286 
	C4.552447,251.053970 4.928191,251.094147 4.927125,251.500122 
	C4.951794,253.269943 4.977528,254.633774 4.979157,256.451294 
	C4.977200,259.934814 4.999348,262.964630 5.000682,266.463074 
	C4.994711,274.622864 5.009555,282.313995 5.006403,290.467651 
	C4.998658,294.954498 5.008910,298.978851 4.995781,303.467224 
	C4.979715,308.287231 4.987030,312.643311 4.968375,317.415588 
	C4.959475,319.221222 4.976545,320.610626 4.993615,322.000000 
z"/>
<path fill="#FFFFFF" opacity="1.000000" stroke="none" 
	d="
M4.928191,251.094147 
	C4.928191,251.094147 4.552447,251.053970 4.365201,251.028366 
	C4.125620,242.653534 4.073287,234.304306 4.093075,225.492004 
	C4.463628,226.745239 4.762059,228.461563 5.047126,231.040451 
	C5.059705,236.917511 5.085647,241.931992 5.079721,247.360458 
	C5.007967,248.881012 4.968079,249.987579 4.928191,251.094147 
z"/>
<path fill="#FFFFFF" opacity="1.000000" stroke="none" 
	d="
M155.601593,464.022034 
	C155.982239,464.630737 156.013977,465.406891 156.021667,466.954498 
	C155.987274,468.490173 155.976929,469.254456 155.663086,470.013367 
	C154.954834,470.008881 154.550095,470.009735 154.145355,470.010590 
	C154.514465,468.070251 154.883575,466.129883 155.601593,464.022034 
z"/>
<path fill="#FFFFFF" opacity="1.000000" stroke="none" 
	d="
M154.074997,470.385498 
	C154.550095,470.009735 154.954834,470.008881 155.684113,470.329956 
	C156.034821,471.074554 156.061020,471.497162 156.064987,472.302246 
	C156.035309,473.445953 156.027863,474.207184 155.805603,474.981750 
	C155.590790,474.995117 155.160980,475.018707 155.160980,475.018707 
	C154.775528,473.599274 154.390076,472.179810 154.074997,470.385498 
z"/>
<path fill="#FFFFFF" opacity="1.000000" stroke="none" 
	d="
M248.951523,368.382019 
	C249.478867,369.211426 250.035934,370.403595 250.363083,371.825806 
	C249.749176,370.952148 249.365219,369.848480 248.951523,368.382019 
z"/>
<path fill="#FFFFFF" opacity="1.000000" stroke="none" 
	d="
M8.011168,333.380432 
	C8.897345,333.793701 9.902056,334.499237 10.958649,335.538025 
	C10.050254,335.138397 9.089978,334.405518 8.011168,333.380432 
z"/>
<path fill="#FFFFFF" opacity="1.000000" stroke="none" 
	d="
M155.163147,475.335938 
	C155.160980,475.018707 155.590790,474.995117 156.052063,475.200073 
	C156.692917,476.252716 156.872513,477.100403 157.052124,477.948090 
	C157.052124,477.948090 156.985855,478.012024 156.952469,478.043701 
	C156.334503,477.267975 155.749908,476.460571 155.163147,475.335938 
z"/>
<path fill="#FFFFFF" opacity="1.000000" stroke="none" 
	d="
M7.102283,332.270264 
	C7.421473,332.159088 7.637702,332.381439 7.858338,332.894775 
	C7.643818,332.924774 7.356011,332.730774 7.102283,332.270264 
z"/>
<path fill="#FFFFFF" opacity="1.000000" stroke="none" 
	d="
M12.957291,337.346497 
	C13.247382,337.118713 13.671505,337.224548 14.273143,337.622742 
	C13.997545,337.836761 13.544434,337.758423 12.957291,337.346497 
z"/>
<path fill="#FFFFFF" opacity="1.000000" stroke="none" 
	d="
M321.386108,339.931152 
	C321.466217,338.849792 321.937012,337.843384 322.539825,336.554749 
	C304.391876,336.009460 286.474823,335.471130 268.342529,334.630371 
	C272.062500,330.859802 275.997711,327.391632 279.932922,323.923492 
	C280.919067,324.944458 281.738770,326.327362 282.940338,326.879974 
	C284.040741,327.386078 285.553619,326.999420 286.884735,326.999451 
	C358.934113,327.000092 430.983521,326.986267 503.032806,327.066803 
	C505.184814,327.069214 507.335724,328.060638 509.806152,328.828430 
	C508.768463,333.837036 505.075409,336.185760 500.030670,337.944336 
	C496.031342,337.918976 492.865784,337.970703 489.700256,337.971008 
	C436.713379,337.976105 383.726440,337.952606 330.739746,338.052734 
	C328.539612,338.056885 326.341614,339.203644 324.142639,339.818054 
	C323.354034,339.880737 322.565399,339.943390 321.386108,339.931152 
z"/>
<path fill="#FFFFFF" opacity="1.000000" stroke="none" 
	d="
M156.087219,471.919800 
	C156.061020,471.497162 156.034821,471.074554 155.987610,470.335327 
	C155.976929,469.254456 155.987274,468.490173 156.013672,467.343353 
	C158.476501,466.648682 160.923080,466.065552 163.370041,466.063843 
	C233.334274,466.014923 303.298523,466.035004 373.262756,465.977997 
	C375.579346,465.976105 379.085358,467.369385 379.018311,462.333618 
	C379.700836,463.052002 380.338531,464.194183 380.667206,465.963837 
	C380.169220,470.226318 378.914459,472.094360 374.614868,472.085205 
	C301.772552,471.929993 228.929825,471.943542 156.087219,471.919800 
z"/>
<path fill="#FFFFFF" opacity="1.000000" stroke="none" 
	d="
M375.393982,481.991943 
	C370.219818,481.701935 365.266602,481.059906 360.312683,481.054596 
	C296.719482,480.986664 233.126114,481.035645 169.532974,480.939331 
	C166.071487,480.934082 161.803711,483.404724 159.260345,477.955383 
	C161.041565,476.842438 162.876633,476.058044 164.712433,476.056335 
	C232.866440,475.993805 301.020508,475.992126 369.174561,476.047272 
	C371.795197,476.049377 374.415283,476.692841 377.026733,477.422089 
	C377.036896,478.577026 377.055939,479.347290 377.074982,480.117584 
	C377.074982,480.117584 377.057343,480.040924 376.855347,480.166626 
	C376.451904,480.585693 376.250427,480.879059 376.048950,481.172424 
	C376.043640,481.506317 375.898834,481.760803 375.393982,481.991943 
z"/>
<path fill="#FFFFFF" opacity="1.000000" stroke="none" 
	d="
M377.035645,477.037415 
	C374.415283,476.692841 371.795197,476.049377 369.174561,476.047272 
	C301.020508,475.992126 232.866440,475.993805 164.712433,476.056335 
	C162.876633,476.058044 161.041565,476.842438 159.099228,477.654541 
	C158.561447,478.018890 158.130600,477.990540 157.375931,477.955139 
	C156.872513,477.100403 156.692917,476.252716 156.266876,475.186707 
	C156.027863,474.207184 156.035309,473.445953 156.064972,472.302246 
	C228.929825,471.943542 301.772552,471.929993 374.614868,472.085205 
	C378.914459,472.094360 380.169220,470.226318 380.604675,466.310242 
	C380.899628,468.119934 380.948059,470.210663 380.606171,472.729004 
	C379.155792,474.450226 378.095703,475.743805 377.035645,477.037415 
z"/>
<path fill="#FFFFFF" opacity="1.000000" stroke="none" 
	d="
M324.557312,339.875732 
	C326.341614,339.203644 328.539612,338.056885 330.739746,338.052734 
	C383.726440,337.952606 436.713379,337.976105 489.700256,337.971008 
	C492.865784,337.970703 496.031342,337.918976 499.671143,337.958832 
	C498.645508,338.353088 497.145844,338.964020 495.645630,338.965302 
	C441.496582,339.012238 387.347534,338.988708 333.198486,339.040009 
	C330.456055,339.042603 327.714172,339.622375 324.557312,339.875732 
z"/>
<path fill="#FFFFFF" opacity="1.000000" stroke="none" 
	d="
M364.835510,450.836578 
	C338.533539,451.217896 312.230774,451.134430 285.481323,450.723145 
	C285.039795,450.223846 285.044891,450.052429 285.049957,449.881042 
	C309.837402,449.920715 334.624908,449.952850 359.412292,450.015717 
	C361.220062,450.020294 363.027222,450.247894 364.835510,450.836578 
z"/>
<path fill="#FFFFFF" opacity="1.000000" stroke="none" 
	d="
M285.033447,449.419830 
	C285.044891,450.052429 285.039795,450.223846 285.017365,450.651978 
	C284.836395,450.955200 284.672760,451.001770 284.230164,450.550690 
	C283.889862,437.703949 283.828583,425.354858 283.767273,413.005737 
	C283.752563,403.018219 283.691498,393.030396 283.752869,383.043335 
	C283.770111,380.238281 284.147369,377.435455 284.601318,374.279114 
	C284.901031,398.937286 284.958954,423.947937 285.033447,449.419830 
z"/>
<path fill="#FFFFFF" opacity="1.000000" stroke="none" 
	d="
M377.026733,477.422058 
	C378.095703,475.743805 379.155792,474.450226 380.530151,473.105530 
	C379.800079,475.306732 378.755737,477.559021 377.393188,479.964447 
	C377.055939,479.347290 377.036896,478.577026 377.026733,477.422058 
z"/>
<path fill="#FFFFFF" opacity="1.000000" stroke="none" 
	d="
M287.360077,367.010925 
	C287.759979,365.445007 288.473755,363.712860 289.525909,361.915588 
	C289.134186,363.515228 288.404053,365.179962 287.360077,367.010925 
z"/>
<path fill="#FFFFFF" opacity="1.000000" stroke="none" 
	d="
M379.060852,461.655579 
	C378.736816,461.467621 378.382568,460.941345 378.012360,460.077820 
	C378.341156,460.266144 378.685913,460.791687 379.060852,461.655579 
z"/>
<path fill="#FFFFFF" opacity="1.000000" stroke="none" 
	d="
M376.302795,481.063965 
	C376.250427,480.879059 376.451904,480.585693 376.894653,480.168701 
	C376.942841,480.348541 376.749756,480.652008 376.302795,481.063965 
z"/>
<path fill="#FFFFFF" opacity="1.000000" stroke="none" 
	d="
M288.182648,318.469513 
	C291.444824,316.177124 294.873291,314.197479 298.817535,312.493683 
	C301.066284,316.398224 304.376282,316.002441 307.544189,316.002258 
	C371.341522,315.999146 435.138916,316.032898 498.936035,315.915070 
	C502.615417,315.908264 506.292542,314.674530 509.977386,314.439514 
	C509.980682,316.579163 509.977264,318.291077 509.973877,320.003021 
	C505.432709,320.668671 500.892609,321.905670 496.350220,321.914185 
	C429.753052,322.038971 363.155640,321.999603 296.558258,322.001282 
	C293.397491,322.001373 290.080292,322.419037 288.182648,318.469513 
z"/>
<path fill="#FFFFFF" opacity="1.000000" stroke="none" 
	d="
M509.984070,320.360107 
	C509.977264,318.291077 509.980682,316.579163 509.987610,313.977844 
	C509.982880,309.398132 509.974609,305.707794 509.976532,301.551453 
	C509.986725,296.902191 509.986725,292.718964 509.986725,288.801300 
	C499.167206,290.285370 489.385223,291.378998 479.635254,287.514252 
	C479.577423,280.436462 479.588501,273.763702 480.092834,267.067627 
	C490.609436,267.015869 500.632782,266.987396 510.656128,266.958923 
	C510.758392,285.662079 510.860657,304.365234 510.914978,323.534180 
	C510.576172,322.905731 510.285248,321.811462 509.984070,320.360107 
z"/>
<path fill="#FFFFFF" opacity="1.000000" stroke="none" 
	d="
M284.109070,320.886169 
	C284.080444,320.678619 284.269440,320.392212 284.721710,320.137878 
	C284.825836,320.444763 284.606415,320.657196 284.109070,320.886169 
z"/>
<path fill="#FFFFFF" opacity="1.000000" stroke="none" 
	d="
M280.121277,323.877258 
	C280.091278,323.668976 280.276581,323.383667 280.723236,323.133545 
	C280.829315,323.441559 280.613342,323.652039 280.121277,323.877258 
z"/>
<path fill="#FFFFFF" opacity="1.000000" stroke="none" 
	d="
M510.613831,94.008759 
	C510.671387,105.363472 510.728943,116.718193 510.349884,128.514359 
	C506.239136,123.058769 500.386017,123.843575 494.733582,123.996651 
	C493.571381,124.028130 492.405548,124.045670 491.244873,123.993263 
	C487.000854,123.801620 482.728210,123.453659 481.563354,129.159195 
	C481.479248,129.571182 480.162964,129.731628 479.324829,129.547760 
	C479.289398,117.067116 479.348755,105.047752 479.804352,92.997963 
	C490.394714,91.667648 500.580078,90.623703 510.613831,94.008759 
z"/>
<path fill="#FFFFFF" opacity="1.000000" stroke="none" 
	d="
M479.419556,130.009018 
	C480.162964,129.731628 481.479248,129.571182 481.563354,129.159195 
	C482.728210,123.453659 487.000854,123.801620 491.244873,123.993263 
	C492.405548,124.045670 493.571381,124.028130 494.733582,123.996651 
	C500.386017,123.843575 506.239136,123.058769 510.257812,128.973694 
	C510.659027,138.348511 510.715698,147.705414 510.312378,157.507324 
	C507.499634,157.303070 505.117004,156.013306 502.799500,156.121323 
	C494.996094,156.485046 487.215912,157.346024 479.334229,157.553955 
	C479.300964,148.063782 479.360260,139.036392 479.419556,130.009018 
z"/>
<path fill="#FFFFFF" opacity="1.000000" stroke="none" 
	d="
M510.703766,93.546890 
	C500.580078,90.623703 490.394714,91.667648 479.711945,92.533752 
	C479.285217,82.402733 479.347168,72.705513 479.409119,63.008286 
	C489.546265,62.987324 499.683472,62.966358 510.216766,62.965939 
	C510.673157,73.019333 510.733429,83.052177 510.703766,93.546890 
z"/>
<path fill="#FFFFFF" opacity="1.000000" stroke="none" 
	d="
M479.426819,158.016769 
	C487.215912,157.346024 494.996094,156.485046 502.799500,156.121323 
	C505.117004,156.013306 507.499634,157.303070 510.222290,157.966202 
	C510.650787,166.340149 510.709442,174.700226 510.308167,183.506653 
	C499.600830,181.183838 489.411346,180.077835 479.338928,184.549332 
	C479.306183,175.397156 479.366516,166.706970 479.426819,158.016769 
z"/>
<path fill="#FFFFFF" opacity="1.000000" stroke="none" 
	d="
M479.431976,185.011307 
	C489.411346,180.077835 499.600830,181.183838 510.217651,183.965225 
	C510.649658,189.664978 510.712219,195.352539 510.254578,201.509384 
	C499.623138,201.979492 489.511932,201.980316 479.319824,201.521027 
	C479.303253,195.711060 479.367615,190.361176 479.431976,185.011307 
z"/>
<path fill="#FFFFFF" opacity="1.000000" stroke="none" 
	d="
M510.706543,210.039703 
	C510.739288,213.712357 510.772064,217.385010 510.285919,221.519592 
	C507.627930,221.987473 505.486481,221.930832 503.350159,222.010529 
	C495.331726,222.309616 487.314972,222.653198 479.224060,222.605743 
	C479.211212,221.477020 479.271881,220.722656 479.682526,219.821777 
	C480.356262,217.454117 481.072327,215.205322 480.918182,213.017838 
	C480.638824,209.053009 482.093079,207.714310 486.044556,207.938049 
	C491.349091,208.238388 496.684357,207.952759 502.004578,208.036087 
	C504.869385,208.080963 508.335754,206.849380 509.603790,211.036041 
	C509.971375,210.703934 510.338959,210.371826 510.706543,210.039703 
z"/>
<path fill="#FFFFFF" opacity="1.000000" stroke="none" 
	d="
M510.633942,232.961014 
	C510.685822,236.646042 510.737701,240.331070 510.282898,244.494354 
	C499.620544,244.973114 489.464905,244.973618 479.240662,244.548660 
	C479.236023,242.407684 479.299957,240.692200 479.705566,238.837341 
	C480.347961,238.142258 480.961365,237.549316 480.900330,237.036667 
	C480.384888,232.707062 482.514557,231.696747 486.429749,231.944031 
	C494.487091,232.452988 502.564667,232.640961 510.633942,232.961014 
z"/>
<path fill="#FFFFFF" opacity="1.000000" stroke="none" 
	d="
M479.309265,244.974136 
	C489.464905,244.973618 499.620544,244.973114 510.214874,244.945984 
	C510.704437,248.300308 510.755310,251.681259 510.296387,255.524277 
	C499.626373,255.984589 489.466156,255.982834 479.230804,255.528656 
	C479.206879,251.708862 479.258057,248.341507 479.309265,244.974136 
z"/>
<path fill="#FFFFFF" opacity="1.000000" stroke="none" 
	d="
M479.305939,255.981079 
	C489.466156,255.982834 499.626373,255.984589 510.224915,255.975525 
	C510.713623,259.329468 510.764008,262.694244 510.735260,266.508972 
	C500.632782,266.987396 490.609436,267.015869 480.087341,266.615540 
	C479.494415,262.784851 479.400177,259.382965 479.305939,255.981079 
z"/>
<path fill="#FFFFFF" opacity="1.000000" stroke="none" 
	d="
M510.713684,232.510925 
	C502.564667,232.640961 494.487091,232.452988 486.429749,231.944031 
	C482.514557,231.696747 480.384888,232.707062 480.900330,237.036667 
	C480.961365,237.549316 480.347961,238.142258 479.626495,238.377716 
	C479.236389,233.031647 479.266998,228.005875 479.297607,222.980103 
	C487.314972,222.653198 495.331726,222.309616 503.350159,222.010529 
	C505.486481,221.930832 507.627930,221.987473 510.209290,221.971375 
	C510.698853,225.327774 510.746155,228.694305 510.713684,232.510925 
z"/>
<path fill="#FFFFFF" opacity="1.000000" stroke="none" 
	d="
M510.768860,209.592697 
	C510.338959,210.371826 509.971375,210.703934 509.603790,211.036041 
	C508.335754,206.849380 504.869385,208.080963 502.004578,208.036087 
	C496.684357,207.952759 491.349091,208.238388 486.044556,207.938049 
	C482.093079,207.714310 480.638824,209.053009 480.918182,213.017838 
	C481.072327,215.205322 480.356262,217.454117 479.612549,219.363022 
	C479.262604,214.689331 479.332611,210.327896 479.639923,205.900269 
	C479.718567,205.233932 479.559937,204.633759 479.305695,203.695953 
	C479.273651,202.899246 479.337189,202.440201 479.400757,201.981140 
	C489.511932,201.980316 499.623138,201.979492 510.176666,201.968124 
	C510.689758,204.353607 510.760468,206.749634 510.768860,209.592697 
z"/>
<path fill="#FFFFFF" opacity="1.000000" stroke="none" 
	d="
M280.625122,61.715179 
	C277.841156,69.853157 274.955872,77.815895 271.703003,85.625511 
	C269.482819,90.955818 264.882568,93.513680 259.339539,93.941612 
	C253.623001,94.382927 248.562210,92.268158 245.818573,87.168854 
	C242.876999,81.701698 240.839645,75.748611 238.397766,70.011810 
	C236.942902,66.593857 235.468994,63.184013 233.942780,59.411011 
	C236.558426,55.260532 240.333618,54.787140 244.665298,54.922447 
	C253.115829,55.186405 261.580994,55.058029 270.039001,54.977718 
	C274.941803,54.931168 279.195709,55.693638 280.625122,61.715179 
z"/>
<path fill="#FFFFFF" opacity="1.000000" stroke="none" 
	d="
M5.093181,70.016609 
	C5.051783,62.324753 5.010385,54.632900 5.023408,46.476501 
	C11.883621,50.997215 19.733561,48.263874 27.112640,49.055809 
	C29.817514,49.346104 32.456345,50.251820 35.558022,51.410244 
	C35.947643,59.966763 35.904537,67.989838 35.518715,75.918098 
	C33.536003,72.757858 31.096195,71.952164 27.563156,71.854614 
	C20.063402,71.647560 12.312294,73.730232 5.093181,70.016609 
z"/>
<path fill="#FFFFFF" opacity="1.000000" stroke="none" 
	d="
M479.402649,205.966461 
	C479.332611,210.327896 479.262604,214.689331 479.262543,219.509521 
	C479.271881,220.722656 479.211212,221.477020 479.224060,222.605743 
	C479.266998,228.005875 479.236389,233.031647 479.284851,238.517059 
	C479.299957,240.692200 479.236023,242.407684 479.240662,244.548660 
	C479.258057,248.341507 479.206879,251.708862 479.230804,255.528656 
	C479.400177,259.382965 479.494415,262.784851 479.594116,266.638855 
	C479.588501,273.763702 479.577423,280.436462 479.593781,287.960083 
	C479.523926,293.217377 479.426605,297.623779 479.253265,302.456116 
	C479.337341,307.048218 476.246338,306.090088 473.940094,306.091553 
	C429.106781,306.120544 384.273468,306.120850 339.440155,306.103546 
	C333.611481,306.101288 327.782837,305.969910 321.954193,305.898315 
	C323.634949,305.598206 325.315491,305.037506 326.996521,305.035919 
	C377.099060,304.989288 427.201599,304.998016 477.997101,304.998016 
	C477.997101,216.245895 477.997101,127.601204 478.206543,38.496540 
	C478.583130,38.028675 478.750336,38.020767 478.917542,38.012856 
	C479.019531,46.036846 479.121490,54.060841 479.316284,62.546558 
	C479.347168,72.705513 479.285217,82.402733 479.315704,92.564171 
	C479.348755,105.047752 479.289398,117.067116 479.324829,129.547760 
	C479.360260,139.036392 479.300964,148.063782 479.334259,157.553955 
	C479.366516,166.706970 479.306183,175.397156 479.338928,184.549332 
	C479.367615,190.361176 479.303253,195.711060 479.319824,201.521027 
	C479.337189,202.440201 479.273651,202.899246 479.230103,204.015167 
	C479.300934,205.103516 479.351776,205.534988 479.402649,205.966461 
z"/>
<path fill="#FFFFFF" opacity="1.000000" stroke="none" 
	d="
M478.731720,37.624924 
	C478.750336,38.020767 478.583130,38.028675 478.164917,38.031132 
	C425.485840,38.013721 373.057800,38.004517 320.629761,37.982224 
	C317.801758,37.981022 314.973816,37.870018 311.692200,37.791695 
	C313.201019,37.520260 315.163239,37.047817 317.125885,37.046276 
	C370.106812,37.004669 423.087738,37.010288 476.068695,37.019291 
	C476.894409,37.019432 477.720154,37.161278 478.731720,37.624924 
z"/>
<path fill="#FFFFFF" opacity="1.000000" stroke="none" 
	d="
M203.496704,37.594631 
	C189.061752,37.851288 174.269714,37.967484 159.477585,37.980915 
	C118.919014,38.017746 78.360405,38.011383 37.345703,38.184143 
	C38.116062,37.900761 39.342072,37.067249 40.569057,37.065800 
	C93.440285,37.003239 146.311584,37.011711 199.182892,37.033157 
	C200.501846,37.033695 201.820694,37.277138 203.496704,37.594631 
z"/>
<path fill="#FFFFFF" opacity="1.000000" stroke="none" 
	d="
M35.861435,76.012909 
	C35.904537,67.989838 35.947643,59.966763 35.933342,51.479984 
	C36.034721,47.135864 36.193501,43.255451 36.626839,39.026123 
	C36.922249,77.131874 36.943104,115.586533 36.715332,154.528259 
	C36.466713,155.015305 36.139896,155.044296 36.071239,154.577698 
	C35.937363,149.072891 35.872147,144.034683 35.855858,138.530579 
	C35.879559,127.379738 35.854336,116.694832 35.880348,105.542419 
	C35.908199,95.387581 35.884819,85.700249 35.861435,76.012909 
z"/>
<path fill="#FFFFFF" opacity="1.000000" stroke="none" 
	d="
M285.592377,54.032513 
	C285.515472,54.474079 285.150696,54.949493 284.481781,55.321411 
	C284.553253,54.834061 284.928894,54.450211 285.592377,54.032513 
z"/>
<path fill="#FFFFFF" opacity="1.000000" stroke="none" 
	d="
M282.881348,57.240158 
	C282.971436,57.671005 282.784698,58.250278 282.328369,58.984459 
	C282.240723,58.555767 282.422638,57.972172 282.881348,57.240158 
z"/>
<path fill="#FFFFFF" opacity="1.000000" stroke="none" 
	d="
M284.126221,55.284676 
	C284.322815,55.309402 284.489105,55.747658 284.312653,55.902039 
	C283.968964,55.873993 283.801727,55.691566 283.634460,55.509144 
	C283.732849,55.426079 283.831207,55.343014 284.126221,55.284676 
z"/>
<path fill="#FFFFFF" opacity="1.000000" stroke="none" 
	d="
M283.417358,412.934814 
	C283.828583,425.354858 283.889862,437.703949 283.976746,450.520172 
	C284.162292,454.019775 282.561523,455.044678 279.719116,455.019623 
	C271.775269,454.949585 263.823364,455.168213 255.891800,454.848083 
	C254.246567,454.781677 252.675323,452.881958 251.073669,451.440521 
	C251.077377,451.053894 251.552933,451.068268 251.934631,450.967072 
	C252.586014,450.605286 252.583847,450.335388 252.309814,450.056244 
	C252.256332,447.306274 252.202850,444.556274 252.426514,441.049255 
	C252.567902,437.891907 252.432175,435.491638 252.296432,433.091370 
	C252.247864,431.648041 252.199310,430.204712 252.225494,428.331848 
	C252.535767,420.808258 253.047607,413.708496 252.902985,406.622162 
	C252.816376,402.378632 253.833557,400.581543 258.416962,400.908813 
	C263.873169,401.298401 269.378204,401.007416 274.862091,401.004913 
	C278.184631,401.003387 279.941711,402.176788 280.168579,405.965424 
	C280.309265,408.314362 282.046753,410.567627 283.417358,412.934814 
z"/>
<path fill="#FFFFFF" opacity="1.000000" stroke="none" 
	d="
M260.122681,328.227142 
	C260.688171,328.369049 261.285492,328.834595 261.976379,329.572510 
	C261.431458,329.413544 260.793030,328.982147 260.122681,328.227142 
z"/>
<path fill="#FFFFFF" opacity="1.000000" stroke="none" 
	d="
M258.148071,326.356079 
	C258.313232,326.268707 258.618195,326.362274 259.005920,326.706818 
	C258.780304,326.896362 258.513367,326.756073 258.148071,326.356079 
z"/>
<path fill="#FFFFFF" opacity="1.000000" stroke="none" 
	d="
M259.150940,327.136932 
	C259.329346,327.082275 259.622284,327.256470 260.010071,327.674683 
	C259.825073,327.734436 259.545288,327.550110 259.150940,327.136932 
z"/>
<path fill="#FFFFFF" opacity="1.000000" stroke="none" 
	d="
M262.229248,330.138489 
	C262.412109,330.087524 262.694702,330.260406 263.044220,330.682068 
	C262.785522,330.830566 262.524811,330.641052 262.229248,330.138489 
z"/>
<path fill="#FFFFFF" opacity="1.000000" stroke="none" 
	d="
M263.177612,331.128052 
	C263.361328,331.082703 263.647003,331.274902 264.016479,331.717834 
	C263.826691,331.767578 263.553131,331.566589 263.177612,331.128052 
z"/>
<path fill="#FFFFFF" opacity="1.000000" stroke="none" 
	d="
M236.057739,312.873047 
	C236.219193,312.915710 236.380661,312.958374 236.922699,313.265198 
	C237.539032,313.746399 237.813248,313.890015 238.125946,313.960144 
	C240.663635,315.050903 243.201324,316.141632 245.894745,317.548157 
	C246.147491,320.802826 244.740479,322.163269 241.793442,322.006866 
	C240.464737,321.936371 239.128998,321.999786 237.796448,321.999786 
	C160.508377,322.000031 83.220314,322.000000 5.462933,322.000000 
	C4.976545,320.610626 4.959475,319.221222 5.382710,317.354187 
	C8.278042,316.584351 10.732907,316.038483 13.188120,316.036926 
	C84.733681,315.991302 156.279282,316.000122 227.824875,315.999390 
	C229.322296,315.999390 230.978378,316.390564 232.274628,315.877350 
	C233.707550,315.310028 234.810867,313.910278 236.057739,312.873047 
z"/>
<path fill="#FFFFFF" opacity="1.000000" stroke="none" 
	d="
M253.155029,322.351959 
	C253.315964,322.263275 253.618118,322.354706 254.013763,322.689484 
	C253.796173,322.881714 253.525833,322.748138 253.155029,322.351959 
z"/>
<path fill="#FFFFFF" opacity="1.000000" stroke="none" 
	d="
M36.139896,155.044296 
	C36.139896,155.044296 36.466713,155.015305 36.628445,154.987061 
	C36.852943,177.000809 36.915707,199.042816 36.749832,221.550827 
	C36.521191,222.016846 36.212090,222.024628 36.212090,222.024628 
	C36.212090,222.024628 36.064751,222.015320 35.990749,222.008072 
	C35.931728,219.906326 35.946712,217.811829 35.932465,214.839935 
	C35.896145,211.332947 35.889050,208.703339 35.881954,206.073730 
	C35.919132,204.979156 35.956306,203.884583 35.980385,201.916290 
	C35.934231,192.701492 35.901176,184.360397 35.920605,175.551743 
	C35.939693,169.729965 35.906300,164.375778 35.925404,158.625916 
	C36.031902,157.168259 36.085899,156.106277 36.139896,155.044296 
z"/>
<path fill="#FFFFFF" opacity="1.000000" stroke="none" 
	d="
M35.667603,206.252869 
	C35.889050,208.703339 35.896145,211.332947 35.881416,214.392914 
	C35.567867,212.829254 35.276138,210.835266 34.980377,208.433716 
	C35.135315,207.494797 35.294285,206.963409 35.667603,206.252869 
z"/>
<path fill="#FFFFFF" opacity="1.000000" stroke="none" 
	d="
M5.111588,246.946472 
	C5.085647,241.931992 5.059705,236.917511 5.065363,231.433334 
	C15.088202,231.309875 25.079443,231.656113 35.565342,232.465775 
	C36.028336,237.941544 35.996674,242.953873 35.500202,247.980103 
	C33.063572,247.996597 31.088943,248.068909 29.120420,247.989609 
	C21.116457,247.667175 13.114368,247.298264 5.111588,246.946472 
z"/>
<path fill="#FFFFFF" opacity="1.000000" stroke="none" 
	d="
M35.965004,247.966217 
	C35.996674,242.953873 36.028336,237.941544 36.034561,232.462463 
	C36.052830,228.972687 36.096542,225.949661 36.176170,222.475616 
	C36.212090,222.024628 36.521191,222.016846 36.675781,222.015121 
	C36.887703,231.055359 36.945034,240.097321 36.727829,249.399170 
	C36.290531,249.094772 36.127766,248.530502 35.965004,247.966217 
z"/>
<path fill="#FFFFFF" opacity="1.000000" stroke="none" 
	d="
M35.829113,106.009918 
	C35.854336,116.694832 35.879559,127.379738 35.508038,138.469299 
	C29.125416,134.144852 22.095318,136.283463 15.492868,136.117554 
	C11.610680,136.020004 8.079071,135.783234 5.141029,133.008301 
	C5.101720,122.986526 5.062410,112.964745 5.445177,102.538483 
	C8.539038,102.755997 11.180882,103.643471 13.888381,103.948822 
	C21.186686,104.771919 28.792543,102.294258 35.829113,106.009918 
z"/>
<path fill="#FFFFFF" opacity="1.000000" stroke="none" 
	d="
M35.880348,105.542419 
	C28.792543,102.294258 21.186686,104.771919 13.888381,103.948822 
	C11.180882,103.643471 8.539038,102.755997 5.494556,102.072906 
	C5.079353,91.656494 5.036847,81.301178 5.043761,70.481232 
	C12.312294,73.730232 20.063402,71.647560 27.563156,71.854614 
	C31.096195,71.952164 33.536003,72.757858 35.518715,75.918098 
	C35.884819,85.700249 35.908199,95.387581 35.880348,105.542419 
z"/>
<path fill="#FFFFFF" opacity="1.000000" stroke="none" 
	d="
M35.868118,176.019318 
	C35.901176,184.360397 35.934231,192.701492 35.931686,201.507736 
	C25.948570,201.977722 16.001051,201.982544 5.599327,201.970688 
	C5.116752,192.282181 5.088381,182.610336 5.470622,172.537872 
	C8.554892,172.759384 11.198650,173.652603 13.907967,173.951431 
	C21.214809,174.757324 28.826180,172.295715 35.868118,176.019318 
z"/>
<path fill="#FFFFFF" opacity="1.000000" stroke="none" 
	d="
M5.090201,133.473663 
	C8.079071,135.783234 11.610680,136.020004 15.492868,136.117554 
	C22.095318,136.283463 29.125416,134.144852 35.459106,138.935211 
	C35.872147,144.034683 35.937363,149.072891 36.071239,154.577698 
	C36.085899,156.106277 36.031902,157.168259 35.524300,158.548798 
	C30.026560,158.577835 24.968227,158.436935 19.942324,157.956665 
	C14.993718,157.483780 10.077985,156.666916 5.147827,156.000977 
	C5.111676,148.647003 5.075525,141.293015 5.090201,133.473663 
z"/>
<path fill="#FFFFFF" opacity="1.000000" stroke="none" 
	d="
M5.098113,156.465317 
	C10.077985,156.666916 14.993718,157.483780 19.942324,157.956665 
	C24.968227,158.436935 30.026560,158.577835 35.471794,158.944473 
	C35.906300,164.375778 35.939693,169.729965 35.920605,175.551743 
	C28.826180,172.295715 21.214809,174.757324 13.907967,173.951431 
	C11.198650,173.652603 8.554892,172.759384 5.511633,172.071259 
	C5.110820,166.980057 5.079609,161.954849 5.098113,156.465317 
z"/>
<path fill="#FFFFFF" opacity="1.000000" stroke="none" 
	d="
M252.216003,433.518860 
	C252.432175,435.491638 252.567902,437.891907 252.499725,440.595337 
	C252.242386,438.581116 252.188980,436.263733 252.216003,433.518860 
z"/>
<path fill="#FFFFFF" opacity="1.000000" stroke="none" 
	d="
M252.221909,450.288544 
	C252.583847,450.335388 252.586014,450.605286 252.170441,450.935608 
	C252.024521,451.005371 252.134003,450.520844 252.221909,450.288544 
z"/>
<path fill="#FFFFFF" opacity="1.000000" stroke="none" 
	d="
M235.877716,312.539703 
	C234.810867,313.910278 233.707550,315.310028 232.274628,315.877350 
	C230.978378,316.390564 229.322296,315.999390 227.824875,315.999390 
	C156.279282,316.000122 84.733681,315.991302 13.188120,316.036926 
	C10.732907,316.038483 8.278042,316.584351 5.408679,316.937927 
	C4.987030,312.643311 4.979715,308.287231 5.462404,303.466492 
	C15.956495,302.339966 25.960583,301.678131 35.984997,301.347656 
	C36.301144,302.478973 36.596962,303.278931 36.892784,304.078857 
	C36.892784,304.078857 37.022552,304.433350 37.195908,305.019165 
	C39.338219,305.774323 41.307041,306.089417 43.276154,306.091278 
	C75.427147,306.121979 107.578186,306.127533 139.729202,306.108276 
	C163.214340,306.094177 186.699463,306.035675 210.184586,305.996979 
	C216.259796,307.327820 222.347946,308.603210 228.403915,310.016510 
	C230.871155,310.592285 233.268539,311.467407 235.877716,312.539703 
z"/>
<path fill="#FFFFFF" opacity="1.000000" stroke="none" 
	d="
M5.024399,290.005157 
	C5.009555,282.313995 4.994711,274.622864 5.411793,266.527649 
	C7.790998,266.415314 9.735806,266.937805 11.685983,266.958649 
	C19.969158,267.047302 28.253925,266.987213 36.640903,267.441406 
	C36.673054,274.273499 36.602409,280.645660 36.164070,287.034241 
	C32.298851,287.700470 28.825691,288.646790 25.298597,288.936462 
	C18.556753,289.490204 11.784204,289.670105 5.024399,290.005157 
z"/>
<path fill="#FFFFFF" opacity="1.000000" stroke="none" 
	d="
M5.006402,290.467651 
	C11.784204,289.670105 18.556753,289.490204 25.298597,288.936462 
	C28.825691,288.646790 32.298851,287.700470 36.250214,287.489960 
	C36.803928,291.679413 36.903801,295.429596 37.003670,299.179779 
	C37.003670,299.179779 37.022060,299.578125 36.759186,299.902405 
	C36.268566,300.455841 36.091354,300.719025 35.964668,301.016296 
	C25.960583,301.678131 15.956495,302.339966 5.485785,303.002502 
	C5.008910,298.978851 4.998658,294.954498 5.006402,290.467651 
z"/>
<path fill="#FFFFFF" opacity="1.000000" stroke="none" 
	d="
M36.538113,266.981445 
	C28.253925,266.987213 19.969158,267.047302 11.685983,266.958649 
	C9.735806,266.937805 7.790998,266.415314 5.432608,266.059021 
	C4.999348,262.964630 4.977200,259.934814 5.447475,256.451935 
	C16.134212,256.328369 26.328526,256.657806 36.620350,257.432739 
	C36.657944,260.912628 36.598030,263.947052 36.538113,266.981445 
z"/>
<path fill="#FFFFFF" opacity="1.000000" stroke="none" 
	d="
M36.522839,256.987274 
	C26.328526,256.657806 16.134212,256.328369 5.471581,255.998260 
	C4.977528,254.633774 4.951794,253.269943 4.927125,251.500122 
	C4.968079,249.987579 5.007967,248.881012 5.079721,247.360458 
	C13.114368,247.298264 21.116457,247.667175 29.120420,247.989609 
	C31.088943,248.068909 33.063572,247.996597 35.500198,247.980103 
	C36.127766,248.530502 36.290531,249.094772 36.664162,249.868988 
	C36.875031,250.078934 37.008427,250.430176 36.926369,251.058838 
	C36.737152,253.454102 36.629993,255.220688 36.522839,256.987274 
z"/>
<path fill="#FFFFFF" opacity="1.000000" stroke="none" 
	d="
M321.587555,306.076355 
	C327.782837,305.969910 333.611481,306.101288 339.440155,306.103546 
	C384.273468,306.120850 429.106781,306.120544 473.940094,306.091553 
	C476.246338,306.090088 479.337341,307.048218 479.654449,302.451477 
	C490.076538,302.019745 500.021423,302.018616 509.966339,302.017487 
	C509.974609,305.707794 509.982880,309.398132 509.980896,313.550110 
	C506.292542,314.674530 502.615417,315.908264 498.936035,315.915070 
	C435.138916,316.032898 371.341522,315.999146 307.544189,316.002258 
	C304.376282,316.002441 301.066284,316.398224 299.170258,312.453339 
	C306.411774,310.176208 313.816345,308.215302 321.587555,306.076355 
z"/>
<path fill="#FFFFFF" opacity="1.000000" stroke="none" 
	d="
M209.959686,305.608093 
	C186.699463,306.035675 163.214340,306.094177 139.729202,306.108276 
	C107.578186,306.127533 75.427147,306.121979 43.276154,306.091278 
	C41.307041,306.089417 39.338219,305.774323 37.178963,305.207153 
	C47.803318,304.872070 58.617943,304.984192 69.432617,304.988892 
	C114.710434,305.008606 159.988266,304.993988 205.266098,305.004883 
	C206.755676,305.005219 208.245209,305.144623 209.959686,305.608093 
z"/>
<path fill="#FFFFFF" opacity="1.000000" stroke="none" 
	d="
M36.620350,257.432739 
	C36.629993,255.220688 36.737152,253.454102 36.907326,251.245743 
	C37.317120,251.469940 37.966953,252.136261 37.966206,252.801849 
	C37.948944,268.113251 37.860867,283.424622 37.394817,298.957886 
	C36.903801,295.429596 36.803928,291.679413 36.617912,287.473511 
	C36.602409,280.645660 36.673054,274.273499 36.640903,267.441406 
	C36.598030,263.947052 36.657944,260.912628 36.620350,257.432739 
z"/>
<path fill="#FFFFFF" opacity="1.000000" stroke="none" 
	d="
M35.984997,301.347656 
	C36.091354,300.719025 36.268566,300.455841 36.693398,300.090637 
	C36.932877,301.055023 36.975273,302.155487 36.955223,303.667419 
	C36.596962,303.278931 36.301144,302.478973 35.984997,301.347656 
z"/>
<path fill="#FFFFFF" opacity="1.000000" stroke="none" 
	d="
M238.035370,313.707642 
	C237.813248,313.890015 237.539032,313.746399 237.160675,313.343445 
	C237.326981,313.256714 237.635895,313.355927 238.035370,313.707642 
z"/>
<path fill="#FFFFFF" opacity="1.000000" stroke="none" 
	d="
M509.976532,301.551453 
	C500.021423,302.018616 490.076538,302.019745 479.730438,302.025513 
	C479.426605,297.623779 479.523926,293.217377 479.662720,288.365173 
	C489.385223,291.378998 499.167206,290.285370 509.986725,288.801300 
	C509.986725,292.718964 509.986725,296.902191 509.976532,301.551453 
z"/>
<path fill="#FFFFFF" opacity="1.000000" stroke="none" 
	d="
M479.639923,205.900269 
	C479.351776,205.534988 479.300934,205.103516 479.325684,204.352814 
	C479.559937,204.633759 479.718567,205.233932 479.639923,205.900269 
z"/>
</svg>