<svg version="1.1" id="Layer_1" xmlns="http://www.w3.org/2000/svg" xmlns:xlink="http://www.w3.org/1999/xlink" x="0px" y="0px"
	 width="100%" viewBox="0 0 643 291" enable-background="new 0 0 643 291" xml:space="preserve">

  <!-- purple: #C8AED0; green: #78C2B3; orange: #DA763D; -->

<path fill="#DA763D" opacity="1.000000" stroke="none" 
	d="
M281.923218,251.395081 
	C282.180756,249.179214 282.398895,247.366379 282.639069,245.370422 
	C283.425598,245.145950 284.193359,244.907257 284.971161,244.707809 
	C294.716705,242.209000 298.801605,237.456757 298.864227,227.367004 
	C299.020325,202.201767 299.003387,177.034470 298.870483,151.868973 
	C298.824402,143.147781 295.374695,139.670761 286.656433,138.593353 
	C285.015808,138.390594 283.169037,138.702454 281.770142,138.036179 
	C280.482178,137.422745 279.616028,135.852249 278.683655,134.613373 
	C278.449158,134.301788 278.642487,133.642593 278.690155,133.148071 
	C280.021118,119.340881 280.022614,119.343346 293.641144,116.808769 
	C295.257355,116.507973 296.865570,116.164368 297.875275,115.961571 
	C299.348785,104.596329 299.834381,93.380905 302.378815,82.653839 
	C309.448334,52.849335 326.208679,31.550289 357.554810,24.767721 
	C373.390198,21.341309 389.002350,23.342093 404.187347,28.736343 
	C408.396881,30.231735 409.496765,33.359306 407.858215,37.958508 
	C405.234283,45.323475 402.626892,52.694489 400.054626,60.077629 
	C398.548401,64.400848 396.631561,65.057152 392.809479,62.317383 
	C382.626068,55.017643 371.657806,50.446655 358.783783,52.247120 
	C350.099670,53.461617 344.179291,58.176098 340.808502,66.230064 
	C335.944153,77.852654 335.996887,90.211700 335.402313,102.458794 
	C335.170532,107.232681 335.364441,112.027229 335.364441,116.627533 
	C345.758911,116.627533 355.544434,116.636543 365.329834,116.611206 
	C366.153900,116.609077 366.973846,116.302734 367.801727,116.262665 
	C374.436371,115.941620 374.583160,116.088104 373.660614,122.583427 
	C372.870331,128.147369 372.021759,133.703033 371.176849,139.411804 
	C359.043335,139.411804 347.175598,139.411804 334.726379,139.411804 
	C334.726379,149.099472 334.769714,158.864182 334.717316,168.628403 
	C334.609283,188.764175 334.418060,208.899567 334.328064,229.035400 
	C334.292389,237.021545 339.229034,241.508636 347.289398,241.219147 
	C352.257843,241.040695 357.244934,240.915359 362.200287,241.188919 
	C363.334869,241.251541 365.377136,243.145035 365.295776,244.041000 
	C364.698883,250.614304 363.668030,257.148163 362.707581,264.180389 
	C335.315155,264.180389 308.032959,264.180389 280.522736,264.180389 
	C280.951813,260.276886 281.417816,256.037506 281.923218,251.395081 
z"/>
<path fill="#FFFFFF" opacity="1.000000" stroke="none" 
	d="
M233.930634,120.040443 
	C245.988602,130.504272 248.982300,144.034958 247.817001,158.694351 
	C246.427124,176.178940 244.299515,193.604080 242.595886,211.065186 
	C242.243393,214.678040 242.106140,218.348190 242.292236,221.970215 
	C242.763199,231.136185 249.001373,235.472336 257.659607,232.621384 
	C260.774994,231.595535 263.679718,229.929749 266.753113,228.522812 
	C272.021667,234.423462 272.270721,234.595520 267.686859,241.230606 
	C263.355377,247.500397 258.798126,253.695633 253.681564,259.325043 
	C242.219971,271.935455 221.593674,267.894440 215.085617,251.984421 
	C214.149139,249.695053 213.751587,247.190262 212.989243,244.822311 
	C212.657867,243.792953 211.994507,242.022278 211.551544,242.043472 
	C210.430511,242.097092 209.159348,242.764709 208.282120,243.556290 
	C202.360260,248.899963 196.531754,254.346954 190.660309,259.746674 
	C183.222733,266.586731 174.766098,267.086761 165.556351,264.050690 
	C143.750839,256.862366 130.050095,225.436493 139.688980,204.557877 
	C142.965500,197.460648 148.135727,192.935181 155.888687,191.026459 
	C174.130203,186.535522 192.297333,181.742416 211.400635,176.839005 
	C211.157913,171.341476 211.548492,165.670624 210.547302,160.257156 
	C207.644989,144.564255 194.417938,136.477600 178.148315,141.442154 
	C169.737976,144.008530 161.987122,149.006149 154.279877,153.492111 
	C150.457001,155.717224 148.977692,155.038086 148.014191,151.128754 
	C146.664017,145.650558 142.841965,139.235336 144.530014,134.992477 
	C146.195297,130.806870 153.267838,128.568222 158.215103,125.940445 
	C165.702728,121.963326 173.429474,118.439117 181.010132,114.633858 
	C199.663467,105.270447 217.035843,108.615845 233.930634,120.040443 
M210.268982,205.747955 
	C210.268982,202.302689 210.268982,198.857407 210.268982,194.835831 
	C199.399384,198.194260 188.759979,201.341995 178.246094,204.864410 
	C176.446686,205.467270 174.546844,207.397430 173.783310,209.181015 
	C170.630341,216.546204 172.834137,223.386612 177.471573,229.222519 
	C181.546890,234.351044 187.416870,236.000107 193.672714,233.699982 
	C198.475906,231.933975 203.119049,229.600281 207.547607,227.027176 
	C208.900726,226.240997 209.918457,223.864731 210.031403,222.147049 
	C210.368866,217.014618 210.181946,211.847702 210.268982,205.747955 
z"/>
<path fill="#FFFFFF" opacity="1.000000" stroke="none" 
	d="
M479.865051,230.986664 
	C483.304169,229.575958 486.493622,228.510727 489.396576,226.922073 
	C492.366852,225.296570 494.075134,225.738510 494.900543,229.062317 
	C494.980774,229.385361 495.080994,229.703705 495.179443,230.021927 
	C499.383209,243.613068 499.429688,243.684326 487.535645,251.421921 
	C483.220490,254.229095 478.557648,256.495850 474.168427,259.196106 
	C443.396027,278.127441 394.063171,263.513641 383.593292,218.700058 
	C376.266083,187.337982 379.700653,157.510010 401.297882,132.361191 
	C419.213104,111.499908 442.678558,104.780357 469.402771,111.741875 
	C487.316345,116.408272 498.590271,131.334030 500.284119,152.700989 
	C501.011230,161.872879 499.964783,171.203247 499.461578,180.447327 
	C499.204102,185.178467 496.481934,187.276016 491.539764,187.243866 
	C469.387207,187.099792 447.233215,187.180817 425.079742,187.180618 
	C423.263672,187.180603 421.447601,187.180634 419.701080,187.180634 
	C414.818726,208.324387 430.540436,232.286987 451.174774,235.129456 
	C460.904663,236.469788 470.310730,234.281799 479.865051,230.986664 
M462.691895,165.276657 
	C466.735016,158.619675 464.147125,152.030579 462.145020,145.625931 
	C460.425507,140.125427 456.168213,136.983902 450.507111,135.808670 
	C433.276520,132.231628 415.638733,151.397842 420.053772,169.005493 
	C427.819153,168.605942 435.609741,168.339767 443.377289,167.762924 
	C449.619324,167.299362 455.833405,166.459549 462.691895,165.276657 
z"/>
<path fill="#FFFFFF" opacity="1.000000" stroke="none" 
	d="
M35.181740,124.182495 
	C53.187740,110.251656 73.341797,107.095467 94.904732,110.483154 
	C100.306641,111.331825 105.606255,112.843857 110.941956,114.097527 
	C114.697418,114.979889 115.988251,117.517082 115.452690,121.157852 
	C113.523926,134.269867 111.581306,147.379852 109.556656,161.081024 
	C104.470711,161.338150 99.097588,161.609802 93.164070,161.909775 
	C93.164070,158.603683 93.367737,155.659302 93.124176,152.752396 
	C92.503990,145.350388 89.848457,138.992203 82.375534,136.157639 
	C74.312035,133.099060 66.290474,133.166763 59.258030,138.859467 
	C53.819668,143.261780 52.814850,151.488739 57.810822,157.254349 
	C61.743702,161.793121 66.852921,165.516205 71.961136,168.787155 
	C80.496696,174.252731 89.503677,178.975784 98.215324,184.173798 
	C128.087479,201.997696 123.262184,237.060638 99.112877,254.596359 
	C84.039986,265.541321 66.842773,268.705566 48.832047,266.718262 
	C39.553093,265.694427 30.463938,262.693878 21.384361,260.234558 
	C17.228687,259.108917 15.582216,256.243744 16.147886,251.485794 
	C17.688259,238.529404 18.659632,225.505356 19.875513,212.301437 
	C25.061106,211.732101 30.463120,211.139008 36.093163,210.520889 
	C36.650345,214.638931 37.025948,218.419952 37.689915,222.149658 
	C40.691517,239.010590 56.546459,247.825333 72.382057,241.501236 
	C83.547981,237.042023 86.283691,226.048965 77.114120,218.489349 
	C69.372017,212.106552 60.068676,207.640411 51.588799,202.122375 
	C44.780773,197.692245 37.729546,193.479034 31.558458,188.257019 
	C14.707121,173.997284 15.736855,148.495560 27.203001,132.865891 
	C29.446949,129.807129 32.312599,127.204468 35.181740,124.182495 
z"/>
<path fill="#FFFFFF" opacity="1.000000" stroke="none" 
	d="
M575.648438,170.467529 
	C574.990295,191.081436 574.186340,211.281937 573.858826,231.490143 
	C573.734680,239.151245 576.946350,241.941803 584.663330,241.886429 
	C589.598877,241.851028 594.529907,241.182663 600.737671,240.698700 
	C599.613708,248.845367 598.527710,256.717041 597.518250,264.033936 
	C572.044434,264.033936 547.006714,264.033936 521.132141,264.033936 
	C521.785706,258.050049 522.505066,251.464218 523.211243,244.998749 
	C535.493164,242.026871 537.901550,240.002991 538.119934,227.405869 
	C538.561401,201.938843 538.370422,176.454254 538.002014,150.983246 
	C537.867126,141.657928 533.480225,138.209015 524.095886,139.099747 
	C519.638184,139.522873 518.326721,137.932404 518.858154,133.829346 
	C519.432556,129.395523 519.869446,124.943893 520.390808,120.280418 
	C533.486877,117.740906 546.490173,115.238785 559.483948,112.687920 
	C563.404236,111.918297 567.296875,111.008156 571.204224,110.171745 
	C576.231079,109.095703 577.981689,110.690208 577.324280,115.634987 
	C576.361816,122.875465 575.406799,130.117706 574.557556,137.371933 
	C574.337952,139.248077 574.524536,141.171799 574.524536,143.073654 
	C574.990601,143.223831 575.456665,143.373993 575.922729,143.524170 
	C579.070251,139.414017 581.745972,134.800873 585.471130,131.306595 
	C591.722656,125.442535 598.343384,119.860413 605.375549,114.975578 
	C611.009338,111.062164 617.817566,111.238358 624.574036,112.074806 
	C628.914490,112.612144 629.559204,114.736397 629.087708,118.505379 
	C627.524841,130.999329 626.093872,143.511520 624.785645,156.034821 
	C624.148560,162.132996 623.895752,168.271332 623.429688,174.954880 
	C617.156616,175.398911 610.946960,175.838455 604.613525,176.286774 
	C604.153809,170.488831 603.953430,164.732117 603.184265,159.052460 
	C602.146301,151.388489 597.333374,148.526413 590.397034,151.876465 
	C582.821716,155.535172 575.814941,160.145523 575.648438,170.467529 
z"/>
</svg>