<svg version="1.1" id="Layer_1" xmlns="http://www.w3.org/2000/svg" xmlns:xlink="http://www.w3.org/1999/xlink" x="0px" y="0px"
	 width="100%" viewBox="0 0 64 64" enable-background="new 0 0 64 64" xml:space="preserve">
<path fill="#5D4160" opacity="1.000000" stroke="none" 
	d="
M38.970139,50.000069 
	C31.822363,49.997292 25.153696,50.237270 18.524429,49.832298 
	C16.718325,49.721966 14.103112,48.040627 13.463647,46.439507 
	C11.580360,41.724060 10.321034,36.729172 9.168190,31.762260 
	C8.317528,28.097269 10.777178,24.980190 13.953833,26.228907 
	C21.246149,29.095451 24.155043,24.094748 27.554928,19.763727 
	C31.710438,14.470144 34.325306,14.442045 38.501308,19.892887 
	C39.905125,21.725254 41.483128,23.428759 42.823334,25.304199 
	C44.834171,28.118093 47.375374,27.164349 49.934811,26.543640 
	C55.353951,25.229397 57.730099,27.686060 56.390675,33.214108 
	C55.964252,34.974037 55.535069,36.737946 54.994991,38.464954 
	C50.741467,52.066460 54.005817,49.757858 38.970139,50.000069 
z"/>
<path fill="#5D4160" opacity="1.000000" stroke="none" 
	d="
M47.571499,59.990005 
	C37.626747,59.994240 28.140911,59.996857 18.655081,59.989986 
	C16.434738,59.988380 13.734509,60.018383 14.305620,56.900539 
	C14.520998,55.724735 16.969421,54.173923 18.433260,54.137569 
	C28.245829,53.893852 38.069698,53.910297 47.883373,54.131805 
	C49.238838,54.162399 50.558262,55.789963 51.894367,56.678207 
	C50.606384,57.780449 49.318401,58.882690 47.571499,59.990005 
z"/>
<path fill="#5D4160" opacity="1.000000" stroke="none" 
	d="
M34.492393,12.663078 
	C32.477531,11.846587 30.463186,11.151528 29.316376,9.747744 
	C28.870802,9.202325 30.070547,6.227176 31.082169,5.845085 
	C32.419247,5.340068 35.643063,6.112955 35.717243,6.656018 
	C35.973167,8.529527 35.212852,10.541853 34.492393,12.663078 
z"/>
<path fill="#5D4160" opacity="1.000000" stroke="none" 
	d="
M11.943201,20.902157 
	C10.300760,22.149868 8.672570,22.989029 7.044380,23.828190 
	C6.384753,22.502928 5.196355,21.159639 5.240724,19.858379 
	C5.273432,18.899101 6.783382,17.437485 7.868146,17.179480 
	C10.279203,16.606026 12.048915,17.593441 11.943201,20.902157 
z"/>
<path fill="#5D4160" opacity="1.000000" stroke="none" 
	d="
M60.136250,17.868731 
	C60.182312,19.938364 60.393990,22.017105 59.504711,23.374651 
	C59.068058,24.041241 56.273880,23.865156 55.140850,23.140856 
	C54.308994,22.609085 53.897453,19.551546 54.239372,19.367510 
	C55.937592,18.453459 57.947872,18.119177 60.136250,17.868731 
z"/>
</svg>